<?xml version="1.0" encoding="UTF-8" standalone="no"?>
<!DOCTYPE svg PUBLIC "-//W3C//DTD SVG 1.1//EN" "http://www.w3.org/Graphics/SVG/1.1/DTD/svg11.dtd">
<!-- Generated by Microsoft Visio, SVG Export Fig 2 ERMS.svg Page-1 -->
<svg xmlns="http://www.w3.org/2000/svg" xmlns:xlink="http://www.w3.org/1999/xlink" xmlns:ev="http://www.w3.org/2001/xml-events"
		xmlns:v="http://schemas.microsoft.com/visio/2003/SVGExtensions/" width="23.8031in" height="11.6929in"
		viewBox="0 0 1713.83 841.89" xml:space="preserve" color-interpolation-filters="sRGB" class="st21">
	<v:documentProperties v:langID="2057" v:metric="true" v:viewMarkup="false">
		<v:userDefs>
			<v:ud v:nameU="msvNoAutoConnect" v:val="VT0(1):26"/>
		</v:userDefs>
	</v:documentProperties>

	<style type="text/css">
	<![CDATA[
		.st1 {fill:#c6d8f0;stroke:#000000;stroke-linecap:round;stroke-linejoin:round;stroke-width:2.25}
		.st2 {fill:#cccccc;fill-opacity:0.6;stroke:#000000;stroke-linecap:round;stroke-linejoin:round;stroke-width:2.25}
		.st3 {fill:none;stroke:none;stroke-linecap:round;stroke-linejoin:round;stroke-width:0.24}
		.st4 {fill:#000000;font-family:Arial;font-size:1.5em;font-weight:bold}
		.st5 {marker-start:url(#mrkr13-13);stroke:#000000;stroke-linecap:round;stroke-linejoin:round;stroke-width:4}
		.st6 {fill:#000000;fill-opacity:1;stroke:#000000;stroke-opacity:1;stroke-width:0.61349693251534}
		.st7 {visibility:visible}
		.st8 {fill:#000000;fill-opacity:0.4;filter:url(#filter_2.6666667461395);stroke:#000000;stroke-linecap:round;stroke-linejoin:round;stroke-opacity:0.4}
		.st9 {fill:#9dbb61;stroke:#000000;stroke-linecap:round;stroke-linejoin:round;stroke-width:0.24}
		.st10 {fill:#ff0000;font-family:Arial;font-size:1.99999em;font-weight:bold}
		.st11 {fill:#000000;font-size:0.750003em;font-weight:normal}
		.st12 {marker-end:url(#mrkr13-67);marker-start:url(#mrkr13-65);stroke:#000000;stroke-dasharray:12,12;stroke-linecap:round;stroke-linejoin:round;stroke-width:4}
		.st13 {fill:#000000;fill-opacity:1;stroke:#000000;stroke-opacity:1;stroke-width:0.5524861878453}
		.st14 {font-size:1em}
		.st15 {stroke:#000000;stroke-dasharray:15,15;stroke-linecap:round;stroke-linejoin:round;stroke-width:5}
		.st16 {fill:#ffffff;stroke:#999999;stroke-linecap:round;stroke-linejoin:round;stroke-width:0.75}
		.st17 {fill:#ff0000}
		.st18 {fill:#ff0000;stroke:#ff0000;stroke-linecap:round;stroke-linejoin:round;stroke-width:0.24}
		.st19 {fill:#f9dc53}
		.st20 {stroke:#000000;stroke-linecap:round;stroke-linejoin:round;stroke-width:0.24}
		.st21 {fill:none;fill-rule:evenodd;font-size:12px;overflow:visible;stroke-linecap:square;stroke-miterlimit:3}
	]]>
	</style>

	<defs id="Markers">
		<g id="lend13">
			<path d="M 3 1 L 0 0 L 3 -1 L 3 1 " style="stroke:none"/>
		</g>
		<marker id="mrkr13-13" class="st6" v:arrowType="13" v:arrowSize="2" v:setback="4.8" refX="4.8" orient="auto"
				markerUnits="strokeWidth" overflow="visible">
			<use xlink:href="#lend13" transform="scale(1.63) "/>
		</marker>
		<marker id="mrkr13-65" class="st13" v:arrowType="13" v:arrowSize="3" v:setback="5.34" refX="5.34" orient="auto"
				markerUnits="strokeWidth" overflow="visible">
			<use xlink:href="#lend13" transform="scale(1.81) "/>
		</marker>
		<marker id="mrkr13-67" class="st13" v:arrowType="13" v:arrowSize="3" v:setback="5.43" refX="-5.43" orient="auto"
				markerUnits="strokeWidth" overflow="visible">
			<use xlink:href="#lend13" transform="scale(-1.81,-1.81) "/>
		</marker>
	</defs>
	<defs id="Filters">
		<filter id="filter_2.6666667461395">
			<feGaussianBlur stdDeviation="2.6666667461395"/>
		</filter>
	</defs>
	<g v:mID="0" v:index="1" v:groupContext="foregroundPage">
		<title>Page-1</title>
		<v:pageProperties v:drawingScale="0.0393701" v:pageScale="0.0393701" v:drawingUnits="24" v:shadowOffsetX="8.50394"
				v:shadowOffsetY="-8.50394"/>
		<g id="shape1-1" v:mID="1" v:groupContext="shape" transform="translate(881.698,-578.098)">
			<title>Rounded Rectangle.5837</title>
			<v:userDefs>
				<v:ud v:nameU="CTypeTopLeftSnip" v:prompt="" v:val="VT0(0):5"/>
				<v:ud v:nameU="CTypeTopRightSnip" v:prompt="" v:val="VT0(0):5"/>
				<v:ud v:nameU="CTypeBotLeftSnip" v:prompt="" v:val="VT0(0):5"/>
				<v:ud v:nameU="CTypeBotRightSnip" v:prompt="" v:val="VT0(0):5"/>
				<v:ud v:nameU="CornerLockHoriz" v:prompt="" v:val="VT0(1):5"/>
				<v:ud v:nameU="CornerLockVert" v:prompt="" v:val="VT0(1):5"/>
				<v:ud v:nameU="CornerLockDiag" v:prompt="" v:val="VT0(0):5"/>
				<v:ud v:nameU="TopLeftOffset" v:prompt="" v:val="VT0(0.15748031496063):24"/>
				<v:ud v:nameU="TopRightOffset" v:prompt="" v:val="VT0(0.15748031496063):24"/>
				<v:ud v:nameU="BotLeftOffset" v:prompt="" v:val="VT0(0.15748031496063):24"/>
				<v:ud v:nameU="BotRightOffset" v:prompt="" v:val="VT0(0.15748031496063):24"/>
				<v:ud v:nameU="visVersion" v:prompt="" v:val="VT0(15):26"/>
				<v:ud v:nameU="TopLeftOffset" v:prompt="" v:val="VT0(0.50155408205553):1"/>
				<v:ud v:nameU="TopRightOffset" v:prompt="" v:val="VT0(0.50155408205553):1"/>
				<v:ud v:nameU="BotLeftOffset" v:prompt="" v:val="VT0(0.50155408205553):1"/>
				<v:ud v:nameU="BotRightOffset" v:prompt="" v:val="VT0(0.50155408205553):1"/>
			</v:userDefs>
			<path d="M36.11 841.89 L325.01 841.89 A36.1113 36.1113 -180 0 0 361.12 805.78 L361.12 761.66 A36.1113 36.1113 -180 0
						 0 325.01 725.55 L36.11 725.55 A36.1113 36.1113 -180 0 0 0 761.66 L0 805.78 A36.1113 36.1113 -180 0 0 36.11
						 841.89 Z" class="st1"/>
		</g>
		<g id="shape2-3" v:mID="2" v:groupContext="shape" transform="translate(681.855,-577.531)">
			<title>Rounded Rectangle.5833</title>
			<v:userDefs>
				<v:ud v:nameU="CTypeTopLeftSnip" v:prompt="" v:val="VT0(0):5"/>
				<v:ud v:nameU="CTypeTopRightSnip" v:prompt="" v:val="VT0(0):5"/>
				<v:ud v:nameU="CTypeBotLeftSnip" v:prompt="" v:val="VT0(0):5"/>
				<v:ud v:nameU="CTypeBotRightSnip" v:prompt="" v:val="VT0(0):5"/>
				<v:ud v:nameU="CornerLockHoriz" v:prompt="" v:val="VT0(1):5"/>
				<v:ud v:nameU="CornerLockVert" v:prompt="" v:val="VT0(1):5"/>
				<v:ud v:nameU="CornerLockDiag" v:prompt="" v:val="VT0(0):5"/>
				<v:ud v:nameU="TopLeftOffset" v:prompt="" v:val="VT0(0.15748031496063):24"/>
				<v:ud v:nameU="TopRightOffset" v:prompt="" v:val="VT0(0.15748031496063):24"/>
				<v:ud v:nameU="BotLeftOffset" v:prompt="" v:val="VT0(0.15748031496063):24"/>
				<v:ud v:nameU="BotRightOffset" v:prompt="" v:val="VT0(0.15748031496063):24"/>
				<v:ud v:nameU="visVersion" v:prompt="" v:val="VT0(15):26"/>
				<v:ud v:nameU="TopLeftOffset" v:prompt="" v:val="VT0(0.50155408205553):1"/>
				<v:ud v:nameU="TopRightOffset" v:prompt="" v:val="VT0(0.50155408205553):1"/>
				<v:ud v:nameU="BotLeftOffset" v:prompt="" v:val="VT0(0.50155408205553):1"/>
				<v:ud v:nameU="BotRightOffset" v:prompt="" v:val="VT0(0.50155408205553):1"/>
			</v:userDefs>
			<path d="M36.11 841.89 L325.01 841.89 A36.1113 36.1113 -180 0 0 361.12 805.78 L361.12 761.66 A36.1113 36.1113 -180 0
						 0 325.01 725.55 L36.11 725.55 A36.1113 36.1113 -180 0 0 0 761.66 L0 805.78 A36.1113 36.1113 -180 0 0 36.11
						 841.89 Z" class="st2"/>
		</g>
		<g id="shape3-5" v:mID="3" v:groupContext="shape" transform="translate(710.202,-617.783)">
			<title>Rectangle.5834</title>
			<desc>Record</desc>
			<v:textBlock v:margins="rect(4,4,4,4)" v:tabSpace="42.5197"/>
			<v:textRect cx="95.6693" cy="820.63" width="191.34" height="42.5197"/>
			<rect x="0" y="799.37" width="191.339" height="42.5197" class="st3"/>
			<text x="64.66" y="826.03" class="st4" v:langID="2057"><v:paragraph v:horizAlign="1"/><v:tabList/>Record</text>		</g>
		<g id="shape4-8" v:mID="4" v:groupContext="shape" transform="translate(123.654,328.093) rotate(-90)">
			<title>Sheet.4</title>
			<path d="M19.2 841.89 L19.56 841.89 L79.58 841.89" class="st5"/>
		</g>
		<g id="shape5-14" v:mID="5" v:groupContext="shape" transform="translate(898.706,-592.272)">
			<title>Rectangle.5835</title>
			<desc>Component</desc>
			<v:userDefs>
				<v:ud v:nameU="visVersion" v:val="VT0(11):26"/>
			</v:userDefs>
			<v:textBlock v:margins="rect(4,4,4,4)" v:tabSpace="42.5197"/>
			<v:textRect cx="62.9366" cy="798.27" width="125.88" height="87.24"/>
			<g id="shadow5-15" v:groupContext="shadow" v:shadowOffsetX="2.12132" v:shadowOffsetY="-2.12132" v:shadowType="1"
					transform="matrix(1,0,0,1,2.12132,2.12132)" class="st7">
				<rect x="0" y="754.65" width="125.873" height="87.24" rx="28.3465" ry="28.3465" class="st8"/>
			</g>
			<rect x="0" y="754.65" width="125.873" height="87.24" rx="28.3465" ry="28.3465" class="st9"/>
			<text x="12.94" y="803.67" class="st4" v:langID="2057"><v:paragraph v:horizAlign="1"/><v:tabList/>Component</text>		</g>
		<g id="shape6-20" v:mID="6" v:groupContext="shape" transform="translate(1041.86,-613.531)">
			<title>Rectangle.5838</title>
			<desc>Record</desc>
			<v:textBlock v:margins="rect(4,4,4,4)" v:tabSpace="42.5197"/>
			<v:textRect cx="95.6693" cy="820.63" width="191.34" height="42.5197"/>
			<rect x="0" y="799.37" width="191.339" height="42.5197" class="st3"/>
			<text x="64.66" y="826.03" class="st4" v:langID="2057"><v:paragraph v:horizAlign="1"/><v:tabList/>Record</text>		</g>
		<g id="shape9-23" v:mID="9" v:groupContext="shape" transform="translate(1229.88,-485.538)">
			<title>Rectangle.5842</title>
			<desc>Non compliant Records are not discrete</desc>
			<v:textBlock v:margins="rect(4,4,4,4)" v:tabSpace="42.5197"/>
			<v:textRect cx="119.673" cy="828.668" width="239.35" height="26.4445"/>
			<rect x="0" y="815.445" width="239.346" height="26.4445" class="st3"/>
			<text x="4" y="825.07" class="st10" v:langID="2057"><v:paragraph/><v:tabList/>Non compliant<v:newlineChar/><tspan x="4"
						dy="1.3em" class="st11">Records are not discrete</tspan></text>		</g>
		<g id="shape10-27" v:mID="10" v:groupContext="shape" transform="translate(887.84,-234.161)">
			<title>Rounded Rectangle.5843</title>
			<v:userDefs>
				<v:ud v:nameU="CTypeTopLeftSnip" v:prompt="" v:val="VT0(0):5"/>
				<v:ud v:nameU="CTypeTopRightSnip" v:prompt="" v:val="VT0(0):5"/>
				<v:ud v:nameU="CTypeBotLeftSnip" v:prompt="" v:val="VT0(0):5"/>
				<v:ud v:nameU="CTypeBotRightSnip" v:prompt="" v:val="VT0(0):5"/>
				<v:ud v:nameU="CornerLockHoriz" v:prompt="" v:val="VT0(1):5"/>
				<v:ud v:nameU="CornerLockVert" v:prompt="" v:val="VT0(1):5"/>
				<v:ud v:nameU="CornerLockDiag" v:prompt="" v:val="VT0(0):5"/>
				<v:ud v:nameU="TopLeftOffset" v:prompt="" v:val="VT0(0.15748031496063):24"/>
				<v:ud v:nameU="TopRightOffset" v:prompt="" v:val="VT0(0.15748031496063):24"/>
				<v:ud v:nameU="BotLeftOffset" v:prompt="" v:val="VT0(0.15748031496063):24"/>
				<v:ud v:nameU="BotRightOffset" v:prompt="" v:val="VT0(0.15748031496063):24"/>
				<v:ud v:nameU="visVersion" v:prompt="" v:val="VT0(15):26"/>
				<v:ud v:nameU="TopLeftOffset" v:prompt="" v:val="VT0(0.50155408205553):1"/>
				<v:ud v:nameU="TopRightOffset" v:prompt="" v:val="VT0(0.50155408205553):1"/>
				<v:ud v:nameU="BotLeftOffset" v:prompt="" v:val="VT0(0.50155408205553):1"/>
				<v:ud v:nameU="BotRightOffset" v:prompt="" v:val="VT0(0.50155408205553):1"/>
			</v:userDefs>
			<path d="M36.11 841.89 L325.01 841.89 A36.1113 36.1113 -180 0 0 361.12 805.78 L361.12 761.66 A36.1113 36.1113 -180 0
						 0 325.01 725.55 L36.11 725.55 A36.1113 36.1113 -180 0 0 0 761.66 L0 805.78 A36.1113 36.1113 -180 0 0 36.11
						 841.89 Z" class="st1"/>
		</g>
		<g id="shape11-29" v:mID="11" v:groupContext="shape" transform="translate(129.796,672.03) rotate(-90)">
			<title>Sheet.11</title>
			<path d="M19.2 841.89 L19.56 841.89 L79.58 841.89" class="st5"/>
		</g>
		<g id="shape12-34" v:mID="12" v:groupContext="shape" transform="translate(904.847,-248.335)">
			<title>Rectangle.5845</title>
			<desc>Component</desc>
			<v:userDefs>
				<v:ud v:nameU="visVersion" v:val="VT0(11):26"/>
			</v:userDefs>
			<v:textBlock v:margins="rect(4,4,4,4)" v:tabSpace="42.5197"/>
			<v:textRect cx="62.9366" cy="796.624" width="125.88" height="90.5308"/>
			<g id="shadow12-35" v:groupContext="shadow" v:shadowOffsetX="2.12132" v:shadowOffsetY="-2.12132" v:shadowType="1"
					transform="matrix(1,0,0,1,2.12132,2.12132)" class="st7">
				<rect x="0" y="751.359" width="125.873" height="90.5308" rx="28.3465" ry="28.3465" class="st8"/>
			</g>
			<rect x="0" y="751.359" width="125.873" height="90.5308" rx="28.3465" ry="28.3465" class="st9"/>
			<text x="12.94" y="802.02" class="st4" v:langID="2057"><v:paragraph v:horizAlign="1"/><v:tabList/>Component</text>		</g>
		<g id="shape13-40" v:mID="13" v:groupContext="shape" transform="translate(1048,-269.594)">
			<title>Rectangle.5846</title>
			<desc>Record</desc>
			<v:textBlock v:margins="rect(4,4,4,4)" v:tabSpace="42.5197"/>
			<v:textRect cx="95.6693" cy="820.63" width="191.34" height="42.5197"/>
			<rect x="0" y="799.37" width="191.339" height="42.5197" class="st3"/>
			<text x="64.66" y="826.03" class="st4" v:langID="2057"><v:paragraph v:horizAlign="1"/><v:tabList/>Record</text>		</g>
		<g id="shape16-43" v:mID="16" v:groupContext="shape" transform="translate(402.17,-233.605)">
			<title>Rounded Rectangle.5849</title>
			<v:userDefs>
				<v:ud v:nameU="CTypeTopLeftSnip" v:prompt="" v:val="VT0(0):5"/>
				<v:ud v:nameU="CTypeTopRightSnip" v:prompt="" v:val="VT0(0):5"/>
				<v:ud v:nameU="CTypeBotLeftSnip" v:prompt="" v:val="VT0(0):5"/>
				<v:ud v:nameU="CTypeBotRightSnip" v:prompt="" v:val="VT0(0):5"/>
				<v:ud v:nameU="CornerLockHoriz" v:prompt="" v:val="VT0(1):5"/>
				<v:ud v:nameU="CornerLockVert" v:prompt="" v:val="VT0(1):5"/>
				<v:ud v:nameU="CornerLockDiag" v:prompt="" v:val="VT0(0):5"/>
				<v:ud v:nameU="TopLeftOffset" v:prompt="" v:val="VT0(0.15748031496063):24"/>
				<v:ud v:nameU="TopRightOffset" v:prompt="" v:val="VT0(0.15748031496063):24"/>
				<v:ud v:nameU="BotLeftOffset" v:prompt="" v:val="VT0(0.15748031496063):24"/>
				<v:ud v:nameU="BotRightOffset" v:prompt="" v:val="VT0(0.15748031496063):24"/>
				<v:ud v:nameU="visVersion" v:prompt="" v:val="VT0(15):26"/>
				<v:ud v:nameU="TopLeftOffset" v:prompt="" v:val="VT0(0.50155408205553):1"/>
				<v:ud v:nameU="TopRightOffset" v:prompt="" v:val="VT0(0.50155408205553):1"/>
				<v:ud v:nameU="BotLeftOffset" v:prompt="" v:val="VT0(0.50155408205553):1"/>
				<v:ud v:nameU="BotRightOffset" v:prompt="" v:val="VT0(0.50155408205553):1"/>
			</v:userDefs>
			<path d="M36.11 841.89 L325.01 841.89 A36.1113 36.1113 -180 0 0 361.12 805.78 L361.12 761.66 A36.1113 36.1113 -180 0
						 0 325.01 725.55 L36.11 725.55 A36.1113 36.1113 -180 0 0 0 761.66 L0 805.78 A36.1113 36.1113 -180 0 0 36.11
						 841.89 Z" class="st1"/>
		</g>
		<g id="shape17-45" v:mID="17" v:groupContext="shape" transform="translate(-155.559,672.03) rotate(-90)">
			<title>Sheet.17</title>
			<path d="M19.2 841.89 L19.56 841.89 L79.58 841.89" class="st5"/>
		</g>
		<g id="shape18-50" v:mID="18" v:groupContext="shape" transform="translate(619.493,-248.335)">
			<title>Rectangle.5851</title>
			<desc>Component</desc>
			<v:userDefs>
				<v:ud v:nameU="visVersion" v:val="VT0(11):26"/>
			</v:userDefs>
			<v:textBlock v:margins="rect(4,4,4,4)" v:tabSpace="42.5197"/>
			<v:textRect cx="62.9366" cy="796.624" width="125.88" height="90.5308"/>
			<g id="shadow18-51" v:groupContext="shadow" v:shadowOffsetX="2.12132" v:shadowOffsetY="-2.12132" v:shadowType="1"
					transform="matrix(1,0,0,1,2.12132,2.12132)" class="st7">
				<rect x="0" y="751.359" width="125.873" height="90.5308" rx="28.3465" ry="28.3465" class="st8"/>
			</g>
			<rect x="0" y="751.359" width="125.873" height="90.5308" rx="28.3465" ry="28.3465" class="st9"/>
			<text x="12.94" y="802.02" class="st4" v:langID="2057"><v:paragraph v:horizAlign="1"/><v:tabList/>Component</text>		</g>
		<g id="shape19-56" v:mID="19" v:groupContext="shape" transform="translate(421.068,-267.621)">
			<title>Rectangle.5852</title>
			<desc>Record</desc>
			<v:textBlock v:margins="rect(4,4,4,4)" v:tabSpace="42.5197"/>
			<v:textRect cx="95.6693" cy="820.63" width="191.34" height="42.5197"/>
			<rect x="0" y="799.37" width="191.339" height="42.5197" class="st3"/>
			<text x="64.66" y="826.03" class="st4" v:langID="2057"><v:paragraph v:horizAlign="1"/><v:tabList/>Record</text>		</g>
		<g id="shape22-59" v:mID="22" v:groupContext="shape" transform="translate(732.958,-137.683)">
			<title>Sheet.22</title>
			<path d="M21.36 841.89 L21.72 841.89 L162.53 841.89" class="st12"/>
		</g>
		<g id="shape23-68" v:mID="23" v:groupContext="shape" transform="translate(732.958,-83.0146)">
			<title>Rectangle.5856</title>
			<desc>Must be physically or logically discrete</desc>
			<v:textBlock v:margins="rect(4,4,4,4)" v:tabSpace="42.5197"/>
			<v:textRect cx="92.126" cy="828.668" width="184.26" height="26.4445"/>
			<rect x="0" y="815.445" width="184.252" height="26.4445" class="st3"/>
			<text x="12.1" y="823.27" class="st4" v:langID="2057"><v:paragraph v:horizAlign="1"/><v:tabList/>Must be physically <tspan
						x="7.59" dy="1.2em" class="st14">or logically discrete</tspan></text>		</g>
		<g id="shape24-72" v:mID="24" v:groupContext="shape" transform="translate(1229.75,-129.634)">
			<title>Rectangle.5857</title>
			<desc>Compliant</desc>
			<v:textBlock v:margins="rect(4,4,4,4)" v:tabSpace="42.5197"/>
			<v:textRect cx="119.673" cy="828.668" width="239.35" height="26.4445"/>
			<rect x="0" y="815.445" width="239.346" height="26.4445" class="st3"/>
			<text x="4" y="825.07" class="st10" v:langID="2057"><v:paragraph/><v:tabList/>Compliant<v:newlineChar/></text>		</g>
		<g id="shape25-75" v:mID="25" v:groupContext="shape" transform="translate(286.409,-399.682) rotate(0.142527)">
			<title>Sheet.25</title>
			<path d="M0 841.89 L1139.53 841.89" class="st15"/>
		</g>
		<g id="shape27-78" v:mID="27" v:groupContext="shape" transform="translate(1091.34,-104.388)">
			<title>Sheet.27</title>
			<rect x="0" y="747.548" width="94.9606" height="94.342" class="st16"/>
		</g>
		<g id="shape28-80" v:mID="28" v:groupContext="shape" transform="translate(1091.98,-99.2126)">
			<title>Sheet.28</title>
			<path d="M40.47 813.05 L80.55 737.2 L93.65 746.83 L45.33 841.89 L0 795.9 L10.04 781.61 L40.47 813.05 Z" class="st17"/>
		</g>
		<g id="shape31-83" v:mID="31" v:groupContext="shape" transform="translate(1093.36,-441.395)">
			<title>Sheet.31</title>
			<rect x="0" y="747.548" width="94.9606" height="94.342" class="st16"/>
		</g>
		<g id="shape32-85" v:mID="32" v:groupContext="shape" transform="translate(1656.94,-241.591) rotate(45)">
			<title>Cross</title>
			<v:userDefs>
				<v:ud v:nameU="ScaleFactor" v:val="VT0(1):26"/>
				<v:ud v:nameU="ControlX1" v:val="VT0(0):26"/>
				<v:ud v:nameU="ControlY1" v:val="VT0(0.66929133858268):24"/>
				<v:ud v:nameU="ControlX2" v:val="VT0(0.66929133858268):24"/>
				<v:ud v:nameU="ControlY2" v:val="VT0(0):26"/>
				<v:ud v:nameU="visVersion" v:val="VT0(15):26"/>
				<v:ud v:nameU="LockBars" v:prompt="" v:val="VT0(1):5"/>
			</v:userDefs>
			<path d="M0 793.7 L48.19 793.7 L48.19 841.89 L65.2 841.89 L65.2 793.7 L113.39 793.7 L113.39 776.69 L65.2 776.69 L65.2
						 728.5 L48.19 728.5 L48.19 776.69 L0 776.69 L0 793.7 Z" class="st18"/>
		</g>
		<g id="shape34-87" v:mID="34" v:groupContext="shape" transform="translate(462.462,-110.463)">
			<title>Sheet.34</title>
			<rect x="0" y="747.548" width="94.9606" height="94.342" class="st16"/>
		</g>
		<g id="shape35-89" v:mID="35" v:groupContext="shape" transform="translate(463.1,-105.287)">
			<title>Sheet.35</title>
			<path d="M40.47 813.05 L80.55 737.2 L93.65 746.83 L45.33 841.89 L0 795.9 L10.04 781.61 L40.47 813.05 Z" class="st17"/>
		</g>
		<g id="shape36-92" v:mID="36" v:groupContext="shape" transform="translate(281.44,-143.563)">
			<title>Rectangle.5874</title>
			<desc>Compliant</desc>
			<v:textBlock v:margins="rect(4,4,4,4)" v:tabSpace="42.5197"/>
			<v:textRect cx="119.673" cy="828.668" width="239.35" height="26.4445"/>
			<rect x="0" y="815.445" width="239.346" height="26.4445" class="st3"/>
			<text x="4" y="825.07" class="st10" v:langID="2057"><v:paragraph/><v:tabList/>Compliant<v:newlineChar/></text>		</g>
		<g id="group39-95" transform="translate(899.433,-453.543)" v:mID="39" v:groupContext="group">
			<title>Sheet.39</title>
			<g id="shape37-96" v:mID="37" v:groupContext="shape" transform="translate(19.7385,0)">
				<title>File</title>
				<v:userDefs>
					<v:ud v:nameU="Scale" v:val="VT0(1):26"/>
					<v:ud v:nameU="AntiScale" v:val="VT0(1):26"/>
					<v:ud v:nameU="visVersion" v:val="VT0(15):26"/>
				</v:userDefs>
				<path d="M0 841.89 L0 781.7 L4.54 777.16 L32.31 777.16 L36.85 781.7 L91.77 781.7 L96.31 786.23 L96.31 841.89 L0 841.89
							 Z" class="st19"/>
				<path d="M0 786.23 L32.31 786.23 L36.85 781.7" class="st20"/>
				<path d="M0 841.89 L0 781.7 L4.54 777.16 L32.31 777.16 L36.85 781.7 L91.77 781.7 L96.31 786.23 L96.31 841.89 L0 841.89"
						class="st20"/>
			</g>
			<g id="shape8-100" v:mID="8" v:groupContext="shape" transform="translate(0,-15.1242)">
				<title>Rectangle.5841</title>
				<desc>Content</desc>
				<v:textBlock v:margins="rect(4,4,4,4)" v:tabSpace="42.5197"/>
				<v:textRect cx="70.8661" cy="828.668" width="141.74" height="26.4445"/>
				<rect x="0" y="815.445" width="141.732" height="26.4445" class="st3"/>
				<text x="36.87" y="834.07" class="st4" v:langID="2057"><v:paragraph v:horizAlign="1"/><v:tabList/>Content</text>			</g>
		</g>
		<g id="group43-103" transform="translate(615.969,-109.887)" v:mID="43" v:groupContext="group">
			<title>Sheet.43</title>
			<g id="shape44-104" v:mID="44" v:groupContext="shape" transform="translate(19.7385,0)">
				<title>File</title>
				<v:userDefs>
					<v:ud v:nameU="Scale" v:val="VT0(1):26"/>
					<v:ud v:nameU="AntiScale" v:val="VT0(1):26"/>
					<v:ud v:nameU="visVersion" v:val="VT0(15):26"/>
				</v:userDefs>
				<path d="M0 841.89 L0 781.7 L4.54 777.16 L32.31 777.16 L36.85 781.7 L91.77 781.7 L96.31 786.23 L96.31 841.89 L0 841.89
							 Z" class="st19"/>
				<path d="M0 786.23 L32.31 786.23 L36.85 781.7" class="st20"/>
				<path d="M0 841.89 L0 781.7 L4.54 777.16 L32.31 777.16 L36.85 781.7 L91.77 781.7 L96.31 786.23 L96.31 841.89 L0 841.89"
						class="st20"/>
			</g>
			<g id="shape45-108" v:mID="45" v:groupContext="shape" transform="translate(0,-15.1242)">
				<title>Rectangle.5841</title>
				<desc>Content</desc>
				<v:textBlock v:margins="rect(4,4,4,4)" v:tabSpace="42.5197"/>
				<v:textRect cx="70.8661" cy="828.668" width="141.74" height="26.4445"/>
				<rect x="0" y="815.445" width="141.732" height="26.4445" class="st3"/>
				<text x="36.87" y="834.07" class="st4" v:langID="2057"><v:paragraph v:horizAlign="1"/><v:tabList/>Content</text>			</g>
		</g>
		<g id="group46-111" transform="translate(899.433,-109.887)" v:mID="46" v:groupContext="group">
			<title>Sheet.46</title>
			<g id="shape47-112" v:mID="47" v:groupContext="shape" transform="translate(19.7385,0)">
				<title>File</title>
				<v:userDefs>
					<v:ud v:nameU="Scale" v:val="VT0(1):26"/>
					<v:ud v:nameU="AntiScale" v:val="VT0(1):26"/>
					<v:ud v:nameU="visVersion" v:val="VT0(15):26"/>
				</v:userDefs>
				<path d="M0 841.89 L0 781.7 L4.54 777.16 L32.31 777.16 L36.85 781.7 L91.77 781.7 L96.31 786.23 L96.31 841.89 L0 841.89
							 Z" class="st19"/>
				<path d="M0 786.23 L32.31 786.23 L36.85 781.7" class="st20"/>
				<path d="M0 841.89 L0 781.7 L4.54 777.16 L32.31 777.16 L36.85 781.7 L91.77 781.7 L96.31 786.23 L96.31 841.89 L0 841.89"
						class="st20"/>
			</g>
			<g id="shape48-116" v:mID="48" v:groupContext="shape" transform="translate(0,-15.1242)">
				<title>Rectangle.5841</title>
				<desc>Content</desc>
				<v:textBlock v:margins="rect(4,4,4,4)" v:tabSpace="42.5197"/>
				<v:textRect cx="70.8661" cy="828.668" width="141.74" height="26.4445"/>
				<rect x="0" y="815.445" width="141.732" height="26.4445" class="st3"/>
				<text x="36.87" y="834.07" class="st4" v:langID="2057"><v:paragraph v:horizAlign="1"/><v:tabList/>Content</text>			</g>
		</g>
	</g>
</svg>
